<svg width="67" height="67" viewBox="0 0 67 67" fill="none" xmlns="http://www.w3.org/2000/svg">
<g clip-path="url(#clip0_1_485)">
<path d="M0 4.1875C0 3.07691 0.441182 2.0118 1.22649 1.22649C2.0118 0.441182 3.07691 0 4.1875 0L62.8125 0C63.9231 0 64.9882 0.441182 65.7735 1.22649C66.5588 2.0118 67 3.07691 67 4.1875V62.8125C67 63.9231 66.5588 64.9882 65.7735 65.7735C64.9882 66.5588 63.9231 67 62.8125 67H4.1875C3.07691 67 2.0118 66.5588 1.22649 65.7735C0.441182 64.9882 0 63.9231 0 62.8125V4.1875ZM16.75 4.1875V29.3125H50.25V4.1875H16.75ZM50.25 37.6875H16.75V62.8125H50.25V37.6875ZM4.1875 4.1875V12.5625H12.5625V4.1875H4.1875ZM12.5625 16.75H4.1875V25.125H12.5625V16.75ZM4.1875 29.3125V37.6875H12.5625V29.3125H4.1875ZM12.5625 41.875H4.1875V50.25H12.5625V41.875ZM4.1875 54.4375V62.8125H12.5625V54.4375H4.1875ZM62.8125 4.1875H54.4375V12.5625H62.8125V4.1875ZM54.4375 16.75V25.125H62.8125V16.75H54.4375ZM62.8125 29.3125H54.4375V37.6875H62.8125V29.3125ZM54.4375 41.875V50.25H62.8125V41.875H54.4375ZM62.8125 54.4375H54.4375V62.8125H62.8125V54.4375Z" fill="url(#paint0_linear_1_485)"/>
</g>
<defs>
<linearGradient id="paint0_linear_1_485" x1="33.5" y1="0" x2="33.5" y2="67" gradientUnits="userSpaceOnUse">
<stop stop-color="#F5DDB2"/>
<stop offset="1" stop-color="#C99744"/>
</linearGradient>
<clipPath id="clip0_1_485">
<rect width="67" height="67" fill="white"/>
</clipPath>
</defs>
</svg>
