<svg width="64" height="67" viewBox="0 0 64 67" fill="none" xmlns="http://www.w3.org/2000/svg">
<path d="M6.88663 32.5362C10.3 32.5362 13.067 29.6395 13.067 26.0662C13.067 22.4928 10.3 19.5961 6.88663 19.5961C3.4733 19.5961 0.706253 22.4928 0.706253 26.0662C0.706253 29.6395 3.4733 32.5362 6.88663 32.5362Z" fill="#F5DDB2"/>
<path d="M9.67525 26.6207C13.0886 26.6207 15.8556 23.724 15.8556 20.1507C15.8556 16.5773 13.0886 13.6806 9.67525 13.6806C6.26192 13.6806 3.49487 16.5773 3.49487 20.1507C3.49487 23.724 6.26192 26.6207 9.67525 26.6207Z" fill="#F5DDB2"/>
<path d="M16.9384 33.0908C20.3517 33.0908 23.1187 30.194 23.1187 26.6207C23.1187 23.0474 20.3517 20.1506 16.9384 20.1506C13.525 20.1506 10.758 23.0474 10.758 26.6207C10.758 30.194 13.525 33.0908 16.9384 33.0908Z" fill="#F5DDB2"/>
<path d="M14.0379 20.1496C17.4512 20.1496 20.2182 17.2528 20.2182 13.6795C20.2182 10.1062 17.4512 7.20944 14.0379 7.20944C10.6245 7.20944 7.8575 10.1062 7.8575 13.6795C7.8575 17.2528 10.6245 20.1496 14.0379 20.1496Z" fill="#F5DDB2"/>
<path d="M26.4738 33.0908C29.8871 33.0908 32.6541 30.194 32.6541 26.6207C32.6541 23.0474 29.8871 20.1506 26.4738 20.1506C23.0604 20.1506 20.2934 23.0474 20.2934 26.6207C20.2934 30.194 23.0604 33.0908 26.4738 33.0908Z" fill="#F5DDB2"/>
<path d="M30.724 18.8568C34.1373 18.8568 36.9044 15.9601 36.9044 12.3868C36.9044 8.81344 34.1373 5.91669 30.724 5.91669C27.3107 5.91669 24.5436 8.81344 24.5436 12.3868C24.5436 15.9601 27.3107 18.8568 30.724 18.8568Z" fill="#F5DDB2"/>
<path d="M22.1599 18.8568C25.5732 18.8568 28.3402 15.9601 28.3402 12.3868C28.3402 8.81344 25.5732 5.91669 22.1599 5.91669C18.7465 5.91669 15.9795 8.81344 15.9795 12.3868C15.9795 15.9601 18.7465 18.8568 22.1599 18.8568Z" fill="#F5DDB2"/>
<path d="M24.5436 25.3269C27.957 25.3269 30.724 22.4302 30.724 18.8568C30.724 15.2835 27.957 12.3867 24.5436 12.3867C21.1303 12.3867 18.3633 15.2835 18.3633 18.8568C18.3633 22.4302 21.1303 25.3269 24.5436 25.3269Z" fill="#F5DDB2"/>
<path d="M18.3633 26.6197C21.7766 26.6197 24.5436 23.7229 24.5436 20.1496C24.5436 16.5763 21.7766 13.6795 18.3633 13.6795C14.9499 13.6795 12.1829 16.5763 12.1829 20.1496C12.1829 23.7229 14.9499 26.6197 18.3633 26.6197Z" fill="#F5DDB2"/>
<path d="M36.4622 29.9482C39.8756 29.9482 42.6426 27.0515 42.6426 23.4781C42.6426 19.9048 39.8756 17.0081 36.4622 17.0081C33.0489 17.0081 30.2819 19.9048 30.2819 23.4781C30.2819 27.0515 33.0489 29.9482 36.4622 29.9482Z" fill="#F5DDB2"/>
<path d="M43.261 33.4605C46.6743 33.4605 49.4414 30.5637 49.4414 26.9904C49.4414 23.4171 46.6743 20.5203 43.261 20.5203C39.8477 20.5203 37.0806 23.4171 37.0806 26.9904C37.0806 30.5637 39.8477 33.4605 43.261 33.4605Z" fill="#F5DDB2"/>
<path d="M45.2534 31.0575C48.6667 31.0575 51.4337 28.1607 51.4337 24.5874C51.4337 21.0141 48.6667 18.1173 45.2534 18.1173C41.84 18.1173 39.073 21.0141 39.073 24.5874C39.073 28.1607 41.84 31.0575 45.2534 31.0575Z" fill="#F5DDB2"/>
<path d="M36.1889 36.0485C39.6022 36.0485 42.3693 33.1517 42.3693 29.5784C42.3693 26.0051 39.6022 23.1083 36.1889 23.1083C32.7755 23.1083 30.0085 26.0051 30.0085 29.5784C30.0085 33.1517 32.7755 36.0485 36.1889 36.0485Z" fill="#F5DDB2"/>
<path d="M50.1481 16.2663C50.1481 16.5118 50.1384 16.7572 50.1091 17.0025C50.0896 17.2174 50.0603 17.4322 50.0213 17.6366C50.0115 17.7083 50.0016 17.7695 49.9823 17.8411C49.9431 18.0354 49.8943 18.2299 49.8356 18.4139C49.7673 18.6388 49.6891 18.8638 49.6013 19.0786C49.5231 19.2935 49.4254 19.4979 49.318 19.7024V19.7126H49.3083C48.8198 20.6636 48.1263 21.4819 47.2959 22.0955C46.1626 22.9645 44.7755 23.4759 43.2614 23.4759C43.0563 23.4759 42.851 23.4657 42.646 23.4351C41.8254 23.3738 41.044 23.1487 40.3406 22.7908C40.0378 22.6477 39.7545 22.484 39.481 22.2898C39.393 22.2386 39.3051 22.1774 39.227 22.0956C38.9535 21.9013 38.6995 21.6762 38.465 21.4409C37.3319 20.2854 36.5796 18.7411 36.4136 17.0129C36.3843 16.7674 36.3746 16.522 36.3746 16.2663C36.3746 16.1334 36.3746 16.0004 36.3941 15.8675C36.5798 12.0735 39.5885 9.05676 43.2615 9.05676H43.3104L45.098 9.32267C46.2995 9.66002 47.3644 10.3453 48.1946 11.2553C48.2533 11.3167 48.3119 11.368 48.3606 11.4292C48.4095 11.4803 48.4485 11.5212 48.4779 11.5724C48.4974 11.5928 48.517 11.6236 48.5365 11.644C48.7026 11.8383 48.8394 12.0326 48.9664 12.237C49.0641 12.3803 49.152 12.5234 49.2301 12.6769C49.2693 12.7484 49.3083 12.82 49.3474 12.8917C49.5428 13.2802 49.7088 13.6893 49.8358 14.1189C49.8554 14.1905 49.8749 14.262 49.8846 14.3337C49.8846 14.3337 49.8944 14.3337 49.8944 14.3439C49.9433 14.5076 49.9824 14.6712 50.0116 14.8449C50.0994 15.3049 50.1481 15.7755 50.1481 16.2663Z" fill="#F5DDB2"/>
<path d="M43.3493 9.8032C43.3493 13.2189 41.0732 16.0822 38.0254 16.8184C37.5273 16.9515 36.9996 17.0128 36.4624 17.0128H36.4135C35.9836 17.0128 35.5636 16.9617 35.1631 16.8798C34.1862 16.6856 33.2876 16.2766 32.5159 15.7039C31.7149 15.1209 31.0408 14.3642 30.5524 13.4847C30.4351 13.3006 30.3375 13.1062 30.2495 12.9018C29.8196 11.9608 29.5755 10.9075 29.5755 9.8032C29.5755 8.37147 29.976 7.04194 30.6696 5.91707C31.2655 4.92516 32.1056 4.09669 33.0923 3.52405C34.0886 2.93112 35.2316 2.59351 36.4624 2.59351C39.266 2.59351 41.6789 4.34218 42.7436 6.85795L43.3102 9.05678C43.3394 9.30214 43.3493 9.5475 43.3493 9.8032Z" fill="#F5DDB2"/>
<path d="M6.88662 25.0483C10.69 25.0483 13.7732 21.8206 13.7732 17.8389C13.7732 13.8572 10.69 10.6295 6.88662 10.6295C3.08325 10.6295 0 13.8572 0 17.8389C0 21.8206 3.08325 25.0483 6.88662 25.0483Z" fill="#F5DDB2"/>
<path d="M10.758 20.3357C14.5614 20.3357 17.6446 17.1079 17.6446 13.1262C17.6446 9.14458 14.5614 5.91681 10.758 5.91681C6.95462 5.91681 3.87137 9.14458 3.87137 13.1262C3.87137 17.1079 6.95462 20.3357 10.758 20.3357Z" fill="#F5DDB2"/>
<path d="M17.6447 15.4493C21.4481 15.4493 24.5314 12.2215 24.5314 8.23983C24.5314 4.25817 21.4481 1.0304 17.6447 1.0304C13.8414 1.0304 10.7581 4.25817 10.7581 8.23983C10.7581 12.2215 13.8414 15.4493 17.6447 15.4493Z" fill="#F5DDB2"/>
<path d="M27.1801 14.4189C30.9835 14.4189 34.0668 11.1911 34.0668 7.20944C34.0668 3.22777 30.9835 0 27.1801 0C23.3767 0 20.2935 3.22777 20.2935 7.20944C20.2935 11.1911 23.3767 14.4189 27.1801 14.4189Z" fill="#F5DDB2"/>
<path d="M34.217 28.3896C37.6303 28.3896 40.3974 25.4928 40.3974 21.9195C40.3974 18.3462 37.6303 15.4494 34.217 15.4494C30.8037 15.4494 28.0366 18.3462 28.0366 21.9195C28.0366 25.4928 30.8037 28.3896 34.217 28.3896Z" fill="#F5DDB2"/>
<path d="M11.0737 63.8809H5.21262L4.36274 57.1416L2.46762 41.986L0.709244 28.0165H7.85987L8.25062 32.3731L8.54362 35.6252L9.95037 51.292L10.9761 62.7662L11.0737 63.8809Z" fill="#D6A048"/>
<path d="M22.8031 63.8804H16.9384L15.0087 28.0197H22.1599L22.8031 63.8804Z" fill="#D6A048"/>
<path d="M34.5326 63.8804H28.6679L29.3111 28.0197H36.4622L34.5326 63.8804Z" fill="#D6A048"/>
<path d="M46.2621 63.8804H40.3974L43.6135 28.0197H50.7646L46.2621 63.8804Z" fill="#D6A048"/>
<path opacity="0.3" d="M31.1377 9.64406C31.1377 8.84726 30.515 8.19545 29.7539 8.19545C29.3407 8.19545 28.9729 8.39134 28.7187 8.69428C28.4959 8.20513 28.0222 7.86267 27.4726 7.86267C27.0944 7.86267 26.7506 8.02415 26.5002 8.28391C26.2497 8.02415 25.9061 7.86267 25.5279 7.86267C24.7667 7.86267 24.144 8.51461 24.144 9.31128C24.144 10.0075 24.6194 10.5927 25.2471 10.7295C25.2179 10.8464 25.1974 10.9667 25.1974 11.0927C25.1974 11.8895 25.8201 12.5413 26.5812 12.5413C26.9535 12.5413 27.2912 12.3837 27.5406 12.1312C27.6752 12.1772 27.8161 12.2086 27.965 12.2086C27.973 12.2086 27.9805 12.2063 27.9885 12.2062C28.2406 12.5694 28.6465 12.809 29.1056 12.809C29.8667 12.809 30.4895 12.1572 30.4895 11.3604C30.4895 11.2019 30.4587 11.0518 30.4134 10.9088C30.8421 10.6619 31.1377 10.1899 31.1377 9.64406Z" fill="#E3991A"/>
<path opacity="0.3" d="M38.0566 21.4039C38.401 22.1545 39.2694 22.4737 39.9864 22.1131C40.3755 21.9175 40.6375 21.5587 40.746 21.1528C41.1674 21.5081 41.7616 21.6063 42.2794 21.346C42.6358 21.1669 42.8898 20.8519 43.0134 20.4887C43.3616 20.6147 43.7551 20.6041 44.1115 20.4249C44.8285 20.0644 45.1334 19.1553 44.7891 18.4047C44.4883 17.7489 43.7874 17.4228 43.1369 17.5912C43.114 17.4672 43.0813 17.3442 43.0268 17.2254C42.6824 16.4748 41.814 16.1556 41.097 16.5162C40.7464 16.6924 40.4961 17.0009 40.3704 17.3569C40.2236 17.3773 40.0774 17.4145 39.9371 17.485C39.9296 17.4888 39.9235 17.4946 39.916 17.4985C39.5215 17.2758 39.0355 17.2423 38.603 17.4598C37.886 17.8203 37.581 18.7294 37.9254 19.48C37.9939 19.6293 38.0876 19.7561 38.1923 19.8694C37.8953 20.3049 37.8208 20.8896 38.0566 21.4039Z" fill="#E3991A"/>
<path opacity="0.3" d="M9.31462 17.8059C8.89062 18.5869 9.15412 19.589 9.90012 20.0329C10.305 20.2738 10.7699 20.2964 11.1802 20.1476C11.1384 20.757 11.4204 21.3689 11.9591 21.6895C12.3299 21.9102 12.7527 21.9523 13.1364 21.8437C13.2436 22.2444 13.4945 22.6031 13.8652 22.8237C14.6112 23.2676 15.5686 22.9919 15.9926 22.2109C16.3631 21.5286 16.2086 20.6776 15.6661 20.1775C15.757 20.0801 15.8411 19.9741 15.9082 19.8506C16.3322 19.0696 16.0687 18.0675 15.3229 17.6235C14.958 17.4064 14.5431 17.3639 14.1642 17.4659C14.0567 17.3423 13.9354 17.2293 13.7895 17.1426C13.7816 17.1379 13.773 17.1358 13.7651 17.1313C13.7114 16.6283 13.441 16.1567 12.991 15.8889C12.245 15.4451 11.2877 15.7208 10.8637 16.5016C10.7794 16.657 10.7296 16.822 10.698 16.9887C10.1461 16.9807 9.60512 17.2709 9.31462 17.8059Z" fill="#E3991A"/>
<path opacity="0.06" d="M5.21262 63.881V64.5354V65.875H6.49237H46.27V63.8502L50.7636 28.0166H50.4901C50.6464 27.7609 50.7832 27.4848 50.9101 27.1985C50.9492 27.0961 50.9882 26.9939 51.0274 26.8917C51.1349 26.5952 51.2325 26.2884 51.2911 25.9611C51.3204 25.8485 51.34 25.7361 51.3497 25.6236C51.3692 25.5724 51.3791 25.511 51.3791 25.46C51.3791 25.4396 51.3889 25.4088 51.3889 25.3884C51.3986 25.2964 51.4084 25.2043 51.4181 25.1225C51.4181 25.1123 51.4181 25.0918 51.4181 25.0816C51.4279 24.918 51.4376 24.7543 51.4376 24.5907C51.4376 24.4066 51.4279 24.2328 51.4181 24.0487C51.4084 23.9873 51.4084 23.9259 51.3986 23.8646C51.3889 23.7214 51.3694 23.5783 51.3302 23.4351C51.3302 23.3737 51.3107 23.3226 51.301 23.2613C51.2717 23.1079 51.2424 22.9544 51.1837 22.8011C51.1837 22.7909 51.1837 22.7807 51.1837 22.7705C51.174 22.7398 51.174 22.6989 51.1545 22.6681C51.1545 22.6477 51.1447 22.6375 51.135 22.617C51.1057 22.4942 51.0666 22.3818 51.0177 22.2693C50.9885 22.1773 50.9591 22.0851 50.9102 21.9932C50.9102 21.9829 50.9102 21.9829 50.9005 21.9727C50.8614 21.8602 50.8126 21.7478 50.754 21.6455C50.6759 21.4819 50.5977 21.3284 50.5 21.175C50.4219 21.0421 50.3437 20.9091 50.246 20.7864C50.2167 20.7352 50.1776 20.684 50.1385 20.633C50.0506 20.5 49.9529 20.3773 49.8356 20.2649C49.8064 20.2137 49.7672 20.1729 49.7281 20.1319L49.7184 20.1217C49.6207 20.0092 49.5327 19.9172 49.4252 19.8252C49.396 19.7842 49.3569 19.7434 49.3177 19.7127V19.7025C49.4252 19.4979 49.5229 19.2934 49.601 19.0787C49.6889 18.8639 49.767 18.639 49.8354 18.4139C49.894 18.2298 49.9429 18.0354 49.9819 17.8412C50.0014 17.7697 50.0111 17.7083 50.021 17.6367C50.0601 17.4322 50.0894 17.2174 50.1089 17.0027C50.1381 16.7572 50.148 16.5118 50.148 16.2664C50.148 15.7755 50.0991 15.3051 50.0112 14.8448C49.982 14.671 49.9429 14.5073 49.894 14.3438C49.894 14.3336 49.8842 14.3336 49.8842 14.3336C49.8745 14.262 49.855 14.1904 49.8354 14.1188C49.7084 13.6893 49.5424 13.2803 49.347 12.8916C49.3079 12.82 49.2689 12.7485 49.2297 12.6769C49.1516 12.5235 49.0637 12.3804 48.966 12.2372C48.839 12.0327 48.7022 11.8383 48.5362 11.644C48.5167 11.6236 48.4971 11.5928 48.4776 11.5724C48.3995 11.4599 48.3017 11.3577 48.2041 11.2451L48.1944 11.2554L47.5692 11.9099L40.8582 18.9355L40.0475 19.7842L38.465 21.4409L36.8434 23.1386L32.5745 27.6075L32.1837 28.0166L32.1251 28.078L30.0346 30.2665L29.2531 31.0846L27.4166 33.0072L22.3467 38.3147L15.9287 45.0336L9.95037 51.2922L4.36275 57.1417L5.21262 63.881Z" fill="#040000"/>
</svg>
