<svg width="1200" height="760" viewBox="0 0 1200 760" fill="none" xmlns="http://www.w3.org/2000/svg">
  <rect width="1200" height="760" fill="#1F1F1F"/>
  <rect x="54" y="28" width="1092" height="704" fill="#383838"/>
  <text x="600" y="260" fill="#FFFFFF" font-family="Georgia, serif" font-size="34" text-anchor="middle">Tonozzi's Films</text>
  <rect x="468" y="390" width="120" height="36" rx="18" fill="#D6A048"/>
  <rect x="600" y="390" width="132" height="36" rx="18" fill="#E7E7E7"/>
  <rect x="744" y="390" width="170" height="36" rx="18" fill="#E7E7E7"/>
  <text x="528" y="414" fill="#FFFFFF" font-family="Georgia, serif" font-size="16" text-anchor="middle">Sobre</text>
  <text x="666" y="414" fill="#111111" font-family="Georgia, serif" font-size="16" text-anchor="middle">Cadastro</text>
  <text x="829" y="414" fill="#111111" font-family="Georgia, serif" font-size="16" text-anchor="middle">Lista de Filmes</text>
  <rect x="390" y="438" width="420" height="318" rx="8" fill="#D9D9D9"/>
  <text x="420" y="490" fill="#1D1D1D" font-family="Georgia, serif" font-size="24">Sobre</text>
  <text x="420" y="532" fill="#1D1D1D" font-family="Arial, sans-serif" font-size="18">CRUD estático em React com formulário, busca, edição e exclusão.</text>
  <text x="420" y="564" fill="#1D1D1D" font-family="Arial, sans-serif" font-size="18">Layout inspirado no mockup, com tabs centrais e ícones laterais.</text>
  <rect x="86" y="44" width="34" height="34" stroke="#D6A048" stroke-width="4"/>
  <rect x="1080" y="44" width="34" height="34" stroke="#D6A048" stroke-width="4"/>
  <circle cx="126" cy="132" r="16" fill="#F5DDB2"/>
  <circle cx="1038" cy="132" r="16" fill="#F5DDB2"/>
  <circle cx="126" cy="252" r="16" fill="#F5DDB2"/>
  <circle cx="1038" cy="252" r="16" fill="#F5DDB2"/>
  <circle cx="126" cy="372" r="16" fill="#F5DDB2"/>
  <circle cx="1038" cy="372" r="16" fill="#F5DDB2"/>
  <rect x="86" y="178" width="34" height="34" stroke="#D6A048" stroke-width="4"/>
  <rect x="1080" y="178" width="34" height="34" stroke="#D6A048" stroke-width="4"/>
  <rect x="86" y="298" width="34" height="34" stroke="#D6A048" stroke-width="4"/>
  <rect x="1080" y="298" width="34" height="34" stroke="#D6A048" stroke-width="4"/>
  <rect x="86" y="418" width="34" height="34" stroke="#D6A048" stroke-width="4"/>
  <rect x="1080" y="418" width="34" height="34" stroke="#D6A048" stroke-width="4"/>
  <circle cx="126" cy="522" r="16" fill="#F5DDB2"/>
  <circle cx="1038" cy="522" r="16" fill="#F5DDB2"/>
  <rect x="86" y="596" width="34" height="34" stroke="#D6A048" stroke-width="4"/>
  <rect x="1080" y="596" width="34" height="34" stroke="#D6A048" stroke-width="4"/>
</svg>
